<svg width="25" height="25" viewBox="0 0 25 25" fill="none" xmlns="http://www.w3.org/2000/svg">
<mask id="mask0_515_3235" style="mask-type:alpha" maskUnits="userSpaceOnUse" x="0" y="0" width="25" height="25">
<rect x="0.265625" y="0.646362" width="24" height="24" fill="#D9D9D9"/>
</mask>
<g mask="url(#mask0_515_3235)">
<path d="M12.2656 20.6464C11.7156 20.6464 11.2448 20.4505 10.8531 20.0589C10.4615 19.6672 10.2656 19.1964 10.2656 18.6464C10.2656 18.0964 10.4615 17.6255 10.8531 17.2339C11.2448 16.8422 11.7156 16.6464 12.2656 16.6464C12.8156 16.6464 13.2865 16.8422 13.6781 17.2339C14.0698 17.6255 14.2656 18.0964 14.2656 18.6464C14.2656 19.1964 14.0698 19.6672 13.6781 20.0589C13.2865 20.4505 12.8156 20.6464 12.2656 20.6464ZM12.2656 14.6464C11.7156 14.6464 11.2448 14.4505 10.8531 14.0589C10.4615 13.6672 10.2656 13.1964 10.2656 12.6464C10.2656 12.0964 10.4615 11.6255 10.8531 11.2339C11.2448 10.8422 11.7156 10.6464 12.2656 10.6464C12.8156 10.6464 13.2865 10.8422 13.6781 11.2339C14.0698 11.6255 14.2656 12.0964 14.2656 12.6464C14.2656 13.1964 14.0698 13.6672 13.6781 14.0589C13.2865 14.4505 12.8156 14.6464 12.2656 14.6464ZM12.2656 8.64636C11.7156 8.64636 11.2448 8.45053 10.8531 8.05886C10.4615 7.6672 10.2656 7.19636 10.2656 6.64636C10.2656 6.09636 10.4615 5.62553 10.8531 5.23386C11.2448 4.8422 11.7156 4.64636 12.2656 4.64636C12.8156 4.64636 13.2865 4.8422 13.6781 5.23386C14.0698 5.62553 14.2656 6.09636 14.2656 6.64636C14.2656 7.19636 14.0698 7.6672 13.6781 8.05886C13.2865 8.45053 12.8156 8.64636 12.2656 8.64636Z" fill="#1C1B1F"/>
</g>
</svg>
